<?xml version="1.0" encoding="UTF-8"?>
<svg xmlns="http://www.w3.org/2000/svg" xmlns:xlink="http://www.w3.org/1999/xlink" width="410.07pt" height="70.17pt" viewBox="0 0 410.07 70.17" version="1.1">
<defs>
<clipPath id="clip1">
  <path d="M 43 0 L 115 0 L 115 70.171875 L 43 70.171875 Z M 43 0 "/>
</clipPath>
<clipPath id="clip2">
  <path d="M 266 0 L 339 0 L 339 70.171875 L 266 70.171875 Z M 266 0 "/>
</clipPath>
<clipPath id="clip3">
  <path d="M 348 1 L 410.070313 1 L 410.070313 69 L 348 69 Z M 348 1 "/>
</clipPath>
</defs>
<g id="surface1">
<path style=" stroke:none;fill-rule:nonzero;fill:rgb(0,0,0);fill-opacity:1;" d="M 15.890625 1.316406 L 0 1.316406 L 0 68.75 L 41.761719 68.75 L 41.761719 54.492188 L 15.890625 54.492188 L 15.890625 1.316406 "/>
<g clip-path="url(#clip1)" clip-rule="nonzero">
<path style=" stroke:none;fill-rule:evenodd;fill:rgb(0,0,0);fill-opacity:1;" d="M 99.246094 34.984375 C 99.246094 46.714844 90.339844 55.90625 79.113281 55.90625 C 67.792969 55.90625 58.589844 46.511719 58.589844 34.789063 C 58.589844 23.253906 67.484375 14.257813 78.925781 14.257813 C 90.542969 14.257813 99.246094 23.15625 99.246094 34.984375 Z M 114.90625 35.179688 C 114.90625 15.371094 99.132813 0 78.8125 0 C 58.589844 0 43.023438 15.167969 43.023438 34.878906 C 43.023438 54.800781 58.695313 70.171875 79.113281 70.171875 C 99.441406 70.171875 114.90625 55.003906 114.90625 35.179688 "/>
</g>
<path style=" stroke:none;fill-rule:nonzero;fill:rgb(0,0,0);fill-opacity:1;" d="M 186.558594 1.316406 L 170.695313 1.316406 L 170.695313 42.566406 L 139.050781 1.316406 L 124.6875 1.316406 L 124.6875 68.75 L 140.566406 68.75 L 140.566406 28.011719 L 172.207031 68.75 L 186.558594 68.75 L 186.558594 1.316406 "/>
<path style=" stroke:none;fill-rule:evenodd;fill:rgb(0,0,0);fill-opacity:1;" d="M 215.53125 14.460938 C 217.039063 14.363281 218.0625 14.363281 218.761719 14.363281 C 228.171875 14.363281 233.328125 15.875 237.671875 19.820313 C 241.605469 23.359375 243.734375 28.515625 243.734375 34.878906 C 243.734375 45.1875 238.183594 52.683594 229.0625 54.6875 C 226.34375 55.304688 224.835938 55.410156 219.980469 55.410156 L 215.53125 55.410156 Z M 199.660156 1.316406 L 199.660156 68.75 C 204.3125 68.847656 208.847656 68.847656 213.402344 68.847656 C 225.628906 68.847656 229.585938 68.644531 234.335938 67.53125 C 239.789063 66.417969 244.855469 63.585938 249.101563 59.445313 C 255.46875 53.285156 259.105469 44.386719 259.105469 34.789063 C 259.105469 23.863281 254.246094 14.054688 246.066406 8 C 239.082031 2.933594 232.921875 1.316406 219.777344 1.316406 L 199.660156 1.316406 "/>
<g clip-path="url(#clip2)" clip-rule="nonzero">
<path style=" stroke:none;fill-rule:evenodd;fill:rgb(0,0,0);fill-opacity:1;" d="M 322.722656 34.984375 C 322.722656 46.714844 313.824219 55.90625 302.613281 55.90625 C 291.289063 55.90625 282.089844 46.511719 282.089844 34.789063 C 282.089844 23.253906 290.980469 14.257813 302.410156 14.257813 C 314.035156 14.257813 322.722656 23.15625 322.722656 34.984375 Z M 338.398438 35.179688 C 338.398438 15.371094 322.636719 0 302.304688 0 C 282.089844 0 266.527344 15.167969 266.527344 34.878906 C 266.527344 54.800781 282.203125 70.171875 302.613281 70.171875 C 322.941406 70.171875 338.398438 55.003906 338.398438 35.179688 "/>
</g>
<g clip-path="url(#clip3)" clip-rule="nonzero">
<path style=" stroke:none;fill-rule:nonzero;fill:rgb(0,0,0);fill-opacity:1;" d="M 410.070313 1.316406 L 394.1875 1.316406 L 394.1875 42.566406 L 362.570313 1.316406 L 348.199219 1.316406 L 348.199219 68.75 L 364.054688 68.75 L 364.054688 28.011719 L 395.71875 68.75 L 410.070313 68.75 L 410.070313 1.316406 "/>
</g>
</g>
</svg>
