<?xml version="1.0" standalone="no"?>
<!DOCTYPE svg PUBLIC "-//W3C//DTD SVG 20010904//EN"
 "http://www.w3.org/TR/2001/REC-SVG-20010904/DTD/svg10.dtd">
<svg version="1.0" xmlns="http://www.w3.org/2000/svg"
 width="5026.000000pt" height="4421.000000pt" viewBox="0 0 5026.000000 4421.000000"
 preserveAspectRatio="xMidYMid meet">
<metadata>
Created by potrace 1.16, written by Peter Selinger 2001-2019
</metadata>
<g transform="translate(0.000000,4421.000000) scale(0.100000,-0.100000)"
fill="currentColor" stroke="none">
<path d="M3210 26721 c0 -11781 -3 -17547 -10 -17667 -63 -1090 -307 -2070
-739 -2959 -173 -356 -337 -619 -612 -985 -271 -361 -499 -620 -840 -955 -298
-292 -562 -516 -874 -740 -129 -93 -135 -99 -122 -119 8 -11 472 -757 1032
-1656 560 -899 1019 -1637 1021 -1639 5 -5 391 254 549 369 802 585 1525 1275
2136 2040 1283 1606 2104 3520 2373 5530 29 214 49 412 73 700 16 192 18 1329
20 17888 l3 17682 -2005 0 -2005 0 0 -17489z"/>
<path d="M15390 25520 l0 -18690 11210 0 c6166 0 11210 2 11210 5 0 5 -2285
3715 -2366 3843 l-34 52 -8010 0 -8010 0 0 16740 0 16740 -2000 0 -2000 0 0
-18690z"/>
<path d="M27560 42260 l0 -1950 5568 0 c3545 0 5627 -4 5732 -10 1176 -70
2251 -413 3197 -1018 612 -391 1187 -924 1624 -1504 720 -957 1142 -2047 1265
-3268 21 -211 30 -777 15 -1010 -88 -1417 -582 -2716 -1439 -3785 -223 -278
-600 -663 -871 -889 -825 -688 -1787 -1147 -2851 -1360 -350 -70 -686 -109
-1080 -126 -146 -6 -2320 -10 -5722 -10 l-5488 0 0 -1945 0 -1945 4053 0
c2930 0 4056 -3 4064 -11 6 -6 2339 -3743 5184 -8305 l5174 -8294 2137 0 2137
0 -204 328 c-112 180 -2454 3938 -5204 8352 -2749 4414 -4997 8027 -4996 8029
2 2 91 16 197 31 1630 235 3159 807 4487 1677 1478 969 2654 2277 3435 3823
777 1535 1157 3294 1105 5116 -40 1432 -378 2783 -1019 4079 -805 1626 -2038
3026 -3583 4069 -1683 1135 -3590 1770 -5607 1866 -140 6 -2147 10 -5762 10
l-5548 0 0 -1950z"/>
</g>
</svg>
