<?xml version="1.0" encoding="UTF-8"?>
<svg id="SVGRoot" width="500" height="251.11" version="1.1" viewBox="0 0 500 251.11092" xmlns="http://www.w3.org/2000/svg" xmlns:cc="http://creativecommons.org/ns#" xmlns:dc="http://purl.org/dc/elements/1.1/" xmlns:rdf="http://www.w3.org/1999/02/22-rdf-syntax-ns#"><metadata><rdf:RDF><cc:Work rdf:about=""><dc:format>image/svg+xml</dc:format><dc:type rdf:resource="http://purl.org/dc/dcmitype/StillImage"/><dc:title/></cc:Work></rdf:RDF></metadata><g transform="translate(-190.11 -144.83)" fill="#000000"><g><path d="m291.87 164.48 45.799 5.6466v-5.83l-45.799-5.6466v5.83"/><path d="m330.76 149.6-6.0844-0.74976c-0.32374 1.2919-1.9081 2.2791-3.8464 2.2791-2.1522 0-3.9025-1.2359-3.9025-2.7077 0-0.19887 0.0208-0.35099 0.0576-0.51132l-7.8789-0.96764c-0.31862 1.2801-1.9302 2.2539-3.8583 2.2539-2.1403 0-3.8912-1.2225-3.8912-2.7246 0-0.1578 0-0.31812 0.0581-0.47533l-9.5552-1.1676v10.004l38.901 4.8038v-10.037"/><path d="m285.3 158.65-45.821 5.6522v5.8198l45.821-5.6363v-5.8357"/><path d="m285.3 144.83-9.5665 1.1675c0.0525 0.15729 0.0801 0.31243 0.0801 0.481 0 1.5021-1.7446 2.7184-3.9359 2.7184-1.8993 0-3.5063-0.96764-3.8192-2.2534l-7.9015 0.9733c0.053 0.16033 0.075 0.31246 0.075 0.50001 0 1.4831-1.739 2.7133-3.9081 2.7133-1.9379 0-3.5284-0.98718-3.83-2.2791l-6.087 0.74975v10.037l38.893-4.8038v-10.004"/><path d="m285.3 168.61-38.893 4.774v41.581h38.893v-46.355"/><path d="m285.3 317.45h-38.893v31.373l38.893-4.79v-26.583"/><path d="m291.72 363.33 44.361 5.4046 0.14695-13.27-44.508-5.4703v13.336"/><path d="m291.72 368.87v26.843l44.508-6.2278-0.14699-15.167-44.361-5.4482"/><path d="m240.07 368.95 45.367-5.5037v-13.314l-45.367 5.4703v13.347"/><path d="m239.8 389.59 45.367 6.3496v-26.816l-45.367 5.5258v14.94"/><path d="m292.45 168.95-0.0801 46.02h37.915l-0.33813-41.263-37.496-4.7571"/><path d="m292.2 343.94 39.167 5.1332-0.26821-31.627h-38.877l-0.0208 26.494"/><path d="m223.09 257.63c-1.1614 2.1516-2.6743 3.847-4.5078 5.0741-1.8253 1.2174-3.8418 2.0694-6.0382 2.5453-2.2035 0.44811-4.3275 0.69066-6.4133 0.69066-2.4554 0-4.8254-0.25694-7.085-0.78778v-29.567h9.0018c2.589 0 4.9369 0.19321 6.995 0.55551 2.0596 0.36794 3.811 1.0535 5.254 2.0381 1.4163 0.98718 2.5448 2.3978 3.3495 4.1769 0.78574 1.7888 1.1999 4.1173 1.1999 6.9714 0 3.369-0.57761 6.1512-1.7559 8.3029m6.5186-20.679c-1.3135-1.2688-2.7519-2.2267-4.3254-2.8901-1.6044-0.66652-3.2134-1.1701-4.8485-1.499-1.6259-0.32375-3.1666-0.53392-4.6296-0.58892-1.46-0.0688-2.7072-0.11911-3.6805-0.11911-0.74155 0-1.6265 0.0513-2.6805 0.11911-1.0642 0.0551-2.185 0.0971-3.3459 0.12392-1.1675 0.0411-2.312 0.0864-3.4384 0.1583-1.128 0.0581-2.0905 0.0971-2.8891 0.0971-1.5966 0-3.2056-0.0513-4.8238-0.16337-1.6316-0.092-3.236-0.19372-4.8367-0.33505 0.20658 4.3948 0.39468 8.6919 0.54727 12.918 0.1881 4.2211 0.26005 8.5074 0.26005 12.916v17.138c0 4.3891-0.0719 8.6929-0.26005 12.946-0.15255 4.2534-0.34069 8.4457-0.54727 12.561 1.5211-0.1105 3.1522-0.16033 4.8644-0.16033 1.7313 0 3.3403 0.0513 4.8706 0.16033-0.19374-4.1152-0.39057-8.3075-0.55089-12.561-0.16859-4.2534-0.2487-8.5572-0.2487-12.935v-5.4816c1.333 0.12995 2.6167 0.22405 3.8799 0.26569 1.2754 0.0515 2.6752 0.0556 4.1877 0.0556 2.4003 0 5.1301-0.26567 8.2278-0.79085 3.0946-0.54474 6.0037-1.5545 8.7643-3.1008 2.7627-1.5345 5.0854-3.664 6.9884-6.3938 1.8916-2.7292 2.8485-6.2751 2.8485-10.67 0-2.794-0.41984-5.1337-1.2056-7.0243-0.79394-1.9034-1.8418-3.4826-3.128-4.7463"/><path d="m246.13 287.64c-0.18606 4.2098-0.36334 8.4576-0.56683 12.705 3.0304-0.11607 6.0397-0.16589 9.0069-0.16589h18.051c2.9672 0 5.9518 0.0513 8.9385 0.16589-0.20451-0.65778-0.30732-1.5319-0.30732-2.5936 0-0.46508 0.0208-0.98566 0.0464-1.5437 0.053-0.5586 0.11908-1.0838 0.26308-1.5545-1.5987 0.34842-3.479 0.59251-5.625 0.74668-2.1712 0.18859-4.4693 0.32119-6.8758 0.39313-2.4251 0.12189-4.9061 0.18243-7.4313 0.18243h-6.9801c-0.0464-1.2837-0.0941-3.1476-0.12995-5.6086-0.0208-2.4451-0.0208-5.587-0.0208-9.3589v-9.8784c0-1.0591 0.015-1.9286 0.075-2.647 0.0556-0.67422 0.0776-1.3356 0.0776-1.9194 1.1917 0 2.8099 0.0152 4.8259 0.0462 2.0242 0.0206 4.198 0.0586 6.4802 0.10278 2.3007 0.0309 4.5823 0.10733 6.8835 0.25385 2.2981 0.12442 4.2807 0.2965 6.031 0.47585-0.19273-0.99591-0.29496-1.9939-0.29496-2.9728 0-1.0704 0.10223-2.0905 0.29496-3.0926-1.4672 0.13047-3.0083 0.23846-4.6337 0.35152-1.6295 0.0915-3.4019 0.19939-5.3527 0.29343-1.9081 0.0915-4.0484 0.18809-6.3665 0.25436-2.3228 0.0462-4.9441 0.0857-7.8676 0.0857 0-1.2503-0.0208-3.109-0.0776-5.5721-0.0586-2.4487-0.075-4.9734-0.075-7.5737 0-2.4528 0.0208-4.6512 0.11354-6.5705 0.091-1.9302 0.13564-3.9523 0.20504-6.0706 3.2632 0 6.0484 0.0513 8.3774 0.15257 2.3227 0.0962 4.4579 0.20454 6.4215 0.36127 1.9497 0.11354 3.8192 0.26619 5.5808 0.37925 1.7672 0.12994 3.7144 0.26002 5.8275 0.40955-0.19886-1.0041-0.29597-2.017-0.29597-3.0093 0-1.0067 0.0972-1.9995 0.29597-3.0062-2.9954 0.13568-5.9349 0.23843-8.864 0.32938-2.9179 0.11936-5.8912 0.16908-8.8687 0.16908-2.9821 0-5.9606-0.0513-8.8949-0.16908-2.9461-0.091-5.8717-0.19373-8.8301-0.32938 0.20349 4.2591 0.38077 8.5069 0.56683 12.761 0.15472 4.2642 0.24305 8.5675 0.24305 12.954v17.155c0 4.386-0.0885 8.6842-0.24305 12.91"/><path d="m322 232.19c-2.9158 0.1186-5.8717 0.16336-8.8697 0.16336-2.9841 0-5.9513-0.0462-8.8753-0.16336-2.9507-0.092-5.8845-0.19373-8.8414-0.33506 0.20451 4.2591 0.37874 8.5069 0.56114 12.767 0.15829 4.2642 0.25439 8.5701 0.25439 12.954v17.149c0 4.3917-0.0961 8.6898-0.25439 12.916-0.1824 4.2092-0.35663 8.457-0.56114 12.694 3.0314-0.1105 6.0371-0.16033 9.01-0.16033h18.057c2.9702 0 5.9385 0.0513 8.9221 0.16033-0.19369-0.64699-0.30114-1.5262-0.30114-2.5828 0-0.46456 0.015-0.98514 0.0525-1.5489 0.041-0.55294 0.12947-1.0781 0.2487-1.5488-1.5987 0.34276-3.4713 0.58685-5.6199 0.74718-2.1681 0.18809-4.4497 0.31501-6.8804 0.39211-2.423 0.11657-4.9061 0.17729-7.4206 0.17729h-6.9776c-0.0515-1.278-0.10277-3.1357-0.11909-5.6034-0.0208-2.4502-0.0515-5.5865-0.0515-9.3584v-9.8784c0-1.0596 0.0256-1.9286 0.0885-2.647 0.041-0.67473 0.0806-1.3412 0.0806-1.9194 1.1891 0 2.8099 0.0152 4.8316 0.0411 2.0211 0.0257 4.1979 0.0643 6.4688 0.10278 2.3038 0.0309 4.5828 0.11303 6.8804 0.25388 2.3017 0.13044 4.3007 0.30111 6.0207 0.48149-0.185-1.0016-0.28675-1.9944-0.28675-2.9728 0-1.0761 0.10175-2.0961 0.28675-3.0926-1.4538 0.12492-2.9836 0.2328-4.6265 0.34584-1.6316 0.10278-3.3988 0.20505-5.3295 0.29345-1.927 0.0915-4.0571 0.18804-6.3773 0.25437-2.3233 0.053-4.9503 0.0915-7.8681 0.0915 0-1.2503-0.041-3.1147-0.0806-5.5777-0.0606-2.443-0.0885-4.9734-0.0885-7.568 0-2.4528 0.0515-4.6512 0.11908-6.5706 0.0941-1.9307 0.15207-3.958 0.20195-6.0705 3.2688 0 6.0629 0.0513 8.3723 0.15205 2.3341 0.091 4.4739 0.1994 6.4405 0.35613 1.9523 0.11353 3.8105 0.26056 5.5782 0.37926 1.756 0.12995 3.6918 0.26567 5.8301 0.4039-0.20451-0.99847-0.30162-2.0057-0.30162-3.0036 0-1.0067 0.0971-1.9996 0.30162-3.0063-2.9985 0.14127-5.9544 0.24307-8.8774 0.33507"/><path d="m368.08 295.79c-4.3058 0.12189-8.825 0.17729-13.543 0.17729-0.0632-4.867-0.14077-10.354-0.22663-16.527-0.0556-6.1343-0.0966-13.388-0.0966-21.754 0-4.3866 0.0796-8.7006 0.26004-12.916 0.16033-4.2262 0.35146-8.5233 0.53907-12.918-0.86025 0.14126-1.6594 0.25488-2.4692 0.33505-0.80476 0.1186-1.5966 0.16336-2.4014 0.16336-0.78728 0-1.5699-0.0462-2.3839-0.16336-0.78164-0.0801-1.609-0.19373-2.4826-0.33505 0.20968 4.3948 0.40854 8.6919 0.5776 12.918 0.16033 4.2154 0.25695 8.5131 0.25695 12.916v17.132c0 4.3948-0.0966 8.7032-0.25695 12.963-0.16906 4.2421-0.36792 8.4293-0.5776 12.561 3.2082-0.12239 6.2607-0.17215 9.2171-0.17215h18.384c3.053 0 6.106 0.0513 9.159 0.17215-0.33402-1.0679-0.48614-1.9584-0.48614-2.6938 0-0.80219 0.15207-1.7873 0.48614-2.9985-4.9832 0.6809-9.6297 1.0622-13.955 1.1393"/><path d="m433.7 257.63c-1.1834 2.1516-2.6739 3.847-4.5128 5.0741-1.8318 1.2174-3.8421 2.0694-6.0462 2.5453-2.1902 0.44811-4.3198 0.69066-6.3995 0.69066-2.4752 0-4.8314-0.25694-7.1023-0.78778v-29.567h8.9941c2.6047 0 4.9392 0.19321 7.0076 0.55551 2.0659 0.36794 3.8164 1.0535 5.2721 2.0381 1.4208 0.98718 2.5384 2.3978 3.3238 4.1769 0.81008 1.7888 1.2081 4.1173 1.2081 6.9714 0 3.369-0.5778 6.1512-1.7449 8.3029m6.5023-20.679c-1.2861-1.2688-2.7294-2.2267-4.3336-2.8901-1.5959-0.66652-3.2062-1.1701-4.8319-1.499-1.6293-0.32375-3.1718-0.53392-4.627-0.58892-1.4603-0.0688-2.691-0.11911-3.6813-0.11911-0.72982 0-1.6318 0.0513-2.6904 0.11911-1.0699 0.0551-2.1687 0.0971-3.3305 0.12392-1.1778 0.0411-2.3115 0.0864-3.4368 0.1583-1.1285 0.0581-2.0911 0.0971-2.8903 0.0971-1.596 0-3.2165-0.0513-4.8371-0.16337-1.6123-0.092-3.2278-0.19372-4.8206-0.33505 0.19877 4.3948 0.38725 8.6919 0.54496 12.918 0.1767 4.2211 0.26507 8.5074 0.26507 12.916v17.138c0 4.3891-0.0885 8.6929-0.26507 12.946-0.15781 4.2534-0.34619 8.4457-0.54496 12.561 1.5127-0.1105 3.1333-0.16033 4.8678-0.16033 1.7089 0 3.3408 0.0513 4.8643 0.16033-0.20442-4.1152-0.39555-8.3075-0.56708-12.561-0.16288-4.2534-0.24855-8.5572-0.24855-12.935v-5.4816c1.3247 0.12995 2.6386 0.22405 3.8856 0.26569 1.2642 0.0515 2.6608 0.0556 4.1982 0.0556 2.3839 0 5.1303-0.26567 8.222-0.79085 3.0808-0.54474 6.005-1.5545 8.7622-3.1008 2.7707-1.5345 5.0882-3.664 6.9856-6.3938 1.8862-2.7292 2.8426-6.2751 2.8426-10.67 0-2.794-0.41453-5.1337-1.1942-7.0243-0.81055-1.9034-1.8532-3.4826-3.139-4.7463"/><path d="m514.13 280.67c-1.411 4.0489-3.3413 7.3732-5.8299 9.9956-2.4835 2.6162-5.3989 4.5798-8.7511 5.8357-3.3572 1.2827-6.9742 1.8962-10.902 1.8962-3.8322 0-7.4386-0.61357-10.791-1.8962-3.3412-1.2559-6.2676-3.2195-8.7618-5.8357-2.467-2.6224-4.4194-5.9467-5.8135-9.9956-1.3998-4.0099-2.0854-8.7947-2.0854-14.317s0.68563-10.297 2.0854-14.323c1.3941-4.0458 3.3464-7.3486 5.8135-9.9869 2.4943-2.6326 5.4206-4.5715 8.7618-5.8465 3.352-1.2559 6.9585-1.9024 10.791-1.9024 3.928 0 7.545 0.64647 10.902 1.9024 3.3522 1.275 6.2676 3.2139 8.7511 5.8465 2.4886 2.6383 4.4189 5.9411 5.8299 9.9869 1.393 4.0263 2.0849 8.8003 2.0849 14.323 0 5.5227-0.69186 10.308-2.0849 14.317m1.4268-40.734c-3.2744-3.0535-7.2126-5.3799-11.793-6.9724-4.5633-1.5956-9.6134-2.3901-15.117-2.3901-5.4318 0-10.448 0.79446-15.023 2.3901-4.574 1.5925-8.4902 3.9189-11.77 6.9724-3.2914 3.0643-5.8468 6.8034-7.6668 11.214-1.8142 4.4251-2.7207 9.4638-2.7207 15.112 0 5.6358 0.90651 10.694 2.7207 15.089 1.82 4.4251 4.3754 8.1754 7.6668 11.234 3.2801 3.0592 7.1963 5.3151 11.77 6.8311 4.5745 1.4656 9.5908 2.2179 15.023 2.2179 5.5039 0 10.554-0.75233 15.117-2.2179 4.5801-1.516 8.5183-3.7719 11.793-6.8311 3.2798-3.0587 5.8243-6.809 7.6607-11.234 1.8147-4.3948 2.7326-9.4529 2.7326-15.089 0-5.6481-0.9179-10.687-2.7326-15.112-1.8363-4.4107-4.3809-8.1497-7.6607-11.214"/><path d="m554.91 263.9c-1.3437 0-2.5611-0.036-3.6619-0.10227-1.0837-0.0663-2.1014-0.20196-3.0475-0.40083v-5.6692c0-3.5844 0.0772-7.1826 0.21581-10.767 0.1101-3.5982 0.27057-7.2104 0.39236-10.858 1.0566-0.14395 2.3623-0.24923 3.8832-0.34534 1.5429-0.10227 3.4625-0.17163 5.7913-0.17163 1.7367 0 3.5067 0.20453 5.3045 0.56117 1.7922 0.36794 3.4461 1.0535 5.0004 2.0381 1.5039 1.0154 2.7762 2.3454 3.7331 4.0273 0.96257 1.7061 1.4434 3.8408 1.4434 6.4575 0 2.9728-0.61894 5.4487-1.8466 7.3979-1.2281 1.9831-2.7829 3.5345-4.6413 4.6846-1.8585 1.1732-3.9049 1.9862-6.1341 2.4456-2.2236 0.46403-4.3702 0.70197-6.4329 0.70197m26.107 26.423c-1.7305-2.1568-3.5287-4.4025-5.382-6.7812-1.8688-2.3449-3.6664-4.6291-5.3862-6.7782-1.7263-2.1409-3.2806-4.1234-4.6859-5.9128-1.3772-1.8058-2.4892-3.1943-3.291-4.1954 1.9416-0.26825 4.0826-0.81041 6.4494-1.6593 2.3618-0.8104 4.5633-1.9831 6.621-3.4631 2.0684-1.5124 3.8164-3.3994 5.2438-5.6913 1.4325-2.2878 2.1405-5.0474 2.1405-8.2196 0-2.9944-0.54201-5.4873-1.654-7.475-1.0894-1.9888-2.5774-3.5988-4.4856-4.8372-1.8919-1.242-4.0928-2.1018-6.6323-2.644-2.5164-0.53392-5.1878-0.79959-7.976-0.79959-1.9246 0-3.8276 0.0832-5.6804 0.23741-1.8753 0.16337-3.767 0.25541-5.6974 0.25541-1.9139 0-3.8277-0.0513-5.6749-0.16336-1.8634-0.092-3.7614-0.19373-5.6916-0.3294 0.19355 4.3891 0.38212 8.6816 0.57567 12.912 0.15468 4.2154 0.2373 8.5074 0.2373 12.91v17.138c0 4.3948-0.0822 8.7032-0.2373 12.963-0.19355 4.2421-0.38212 8.4293-0.57567 12.561 1.5208-0.1224 3.1584-0.17217 4.8786-0.17217 1.7146 0 3.3351 0.0513 4.8786 0.17217-0.20489-4.1322-0.36512-8.3193-0.5198-12.561-0.1438-4.2488-0.22141-8.5686-0.22141-12.952v-7.273h3.7887c2.1188 2.1989 4.4359 4.8778 7.0082 8.0259 2.5555 3.1496 5.0672 6.3306 7.506 9.5162 2.4779 3.1861 4.7126 6.1672 6.7314 8.9606 2.0356 2.7822 3.5456 4.8902 4.5359 6.2838 0.94007-0.1224 1.897-0.17217 2.8872-0.17217h5.8741c0.99551 0 2.0023 0.0513 3.0033 0.17217-0.92916-0.92964-2.1685-2.3017-3.7003-4.0993-1.5157-1.7801-3.1471-3.7606-4.8678-5.9297"/><path d="m630.12 232.19c-4.1925 0.1186-8.4793 0.16336-12.86 0.16336-4.3752 0-8.673-0.0462-12.854-0.16336-4.1765-0.092-8.4691-0.19373-12.849-0.33506 0.33745 1.3305 0.48136 2.3675 0.48136 3.0921 0 0.94042-0.14376 1.9939-0.48136 3.2 1.3993-0.20966 2.9644-0.35663 4.7298-0.49797 1.7525-0.12492 3.5949-0.24306 5.4806-0.34532 1.8917-0.10835 3.7949-0.16334 5.6752-0.18809 1.897-0.0359 3.7009-0.0611 5.4427-0.0611 0.20997 6.8419 0.30974 13.707 0.30974 20.635v17.138c0 4.3891-0.0721 8.6975-0.23783 12.946-0.1767 4.2534-0.37049 8.4406-0.56403 12.561 1.5158-0.11049 3.1414-0.16033 4.8674-0.16033 1.7088 0 3.3407 0.0513 4.8564 0.16033-0.18794-4.1203-0.37019-8.3075-0.53057-12.561-0.17152-4.2488-0.24343-8.5572-0.24343-12.946v-17.138c0-6.9277 0.10508-13.793 0.29849-20.635 1.7315 0 3.54 0.0257 5.421 0.0611 1.9084 0.0257 3.7887 0.0796 5.6912 0.18809 1.8975 0.10227 3.7173 0.22046 5.4762 0.34532 1.77 0.14126 3.3407 0.2883 4.7399 0.49796-0.33137-1.2061-0.4972-2.2375-0.4972-3.0864 0-0.81604 0.16593-1.8752 0.4972-3.2056-4.3804 0.14125-8.6724 0.24308-12.849 0.33505"/><path d="m687.79 270.77c-1.5882-2.2097-3.5129-4.0047-5.8361-5.3932-2.3172-1.3993-4.8181-2.5776-7.5117-3.5345-2.6879-0.96764-5.1883-2.0627-7.5002-3.2909-2.3171-1.2282-4.2705-2.7298-5.8186-4.5356-1.5657-1.7914-2.3454-4.2426-2.3454-7.3758 0-1.7837 0.32669-3.4374 0.94563-4.9672 0.64159-1.5345 1.5378-2.8485 2.6936-3.9549 1.1727-1.0812 2.5334-1.9245 4.0825-2.5252 1.576-0.60485 3.291-0.91217 5.1381-0.91217 1.859 0 3.4573 0.32376 4.7903 0.95634 1.3222 0.63107 2.4727 1.4219 3.446 2.3397 0.96263 0.93527 1.7147 1.9446 2.2735 3.0422 0.57529 1.0982 1.0231 2.1136 1.3555 3.0422h1.1999c0.37604-1.9189 0.78588-3.5227 1.1783-4.7812 0.42592-1.275 0.91182-2.4502 1.5178-3.6008-1.9996-1.5879-4.1671-2.7827-6.4899-3.5628-2.3294-0.77134-5.0836-1.1506-8.2642-1.1506-3.3243 0-6.3118 0.45994-8.972 1.3998-2.6658 0.92346-4.9278 2.2267-6.8252 3.885-1.9032 1.6763-3.3465 3.6599-4.348 5.9467-1.0012 2.3068-1.5148 4.8429-1.5148 7.6471 0 3.9467 0.7797 7.0578 2.334 9.4093 1.5702 2.3253 3.5174 4.2391 5.8402 5.7304 2.3124 1.4903 4.8073 2.757 7.5003 3.7555 2.6833 0.98974 5.194 2.0956 7.5065 3.2904 2.3176 1.2061 4.27 2.6969 5.8192 4.4801 1.5708 1.8145 2.3448 4.2653 2.3448 7.2962 0 2.0021-0.33175 3.9112-1.0068 5.6528-0.66916 1.7647-1.6097 3.2966-2.8374 4.6024-1.2332 1.3053-2.7156 2.3284-4.4857 3.0966-1.7484 0.76417-3.7286 1.1342-5.9131 1.1342-2.1183 0-4.0542-0.30371-5.78-0.92859-1.726-0.6362-3.2355-1.4435-4.5299-2.4554-1.3-0.97998-2.3896-2.1028-3.2858-3.3248-0.89574-1.2333-1.6097-2.4451-2.1405-3.6337h-1.189c-0.20489 1.9358-0.415 3.5011-0.65284 4.7236-0.23783 1.2385-0.64719 2.627-1.2497 4.1368 1.7258 1.3664 3.8883 2.5941 6.4267 3.6342 2.5668 1.0792 5.9018 1.5817 10.023 1.5817 3.8384 0 7.2845-0.54162 10.304-1.6316 3.0147-1.1007 5.587-2.644 7.6782-4.6682 2.0962-2.0355 3.6797-4.4138 4.784-7.1523 1.0936-2.6933 1.637-5.6142 1.637-8.6723 0-3.6178-0.78752-6.5469-2.3222-8.7315"/><path d="m414.63 352.16h15.722c0.0468 0.6141 0.0468 1.1778 0.0468 1.7647 0 10.145-5.7504 15.881-15.278 15.881-4.6824 0-8.336-1.3495-11.286-4.348-2.7989-2.832-4.403-6.8532-4.403-11.002 0-8.9165 6.6568-15.354 15.689-15.354 5.7112 0 10.186 2.2899 13.22 6.7807l-6.9364 3.3192c-1.6432-2.257-3.7008-3.3737-6.2834-3.3737-4.6824 0-7.7191 3.2961-7.7191 8.9601 0 5.625 2.9952 8.9884 7.7191 8.9884 4.1482 0 7.058-2.2899 7.4726-5.4647h-7.9647v-6.1512"/><path d="m452.51 353.62c3.3689 0 4.9674-1.0678 4.9674-3.645 0-3.0648-1.5214-4.071-4.8396-4.071h-1.6046v7.716zm-8.993-13.862h8.8718c4.0599 0 7.1906 0.0309 9.6905 1.9636 2.1301 1.648 3.2858 4.1537 3.2858 7.1738 0 4.5803-2.3017 7.4843-6.5716 8.3861l8.0099 11.82h-9.0382l-6.7318-11.488v11.488h-7.5163v-29.343"/><path d="m500.21 354.49c0-4.7622-3.1969-8.6122-7.6765-8.6122-4.514 0-7.678 3.8115-7.678 8.6122 0 4.8516 2.9981 8.6241 7.678 8.6241 4.5576 0 7.6765-3.8166 7.6765-8.6241m3.4461 10.886c-2.9863 2.9096-7.0186 4.5073-11.123 4.5073-3.5678 0-7.1464-1.2662-9.9787-3.5232-3.6952-2.9538-5.7087-7.141-5.7087-11.87 0-4.1866 1.6042-7.9699 4.6023-10.88 2.9536-2.8757 6.9805-4.5129 11.085-4.5129 4.104 0 8.1742 1.6372 11.123 4.5129 3.0038 2.9102 4.5689 6.7376 4.5689 10.88 0 4.1933-1.6036 8.01-4.5689 10.886"/><path d="m529.28 339.76v15.925c0 5.216 0.94611 7.4786 5.0889 7.4786 4.8893 0 5.0993-3.0427 5.0993-9.326v-14.077h7.9601v17.452c0 8.8604-3.74 12.677-13.059 12.677-4.9619 0-8.4081-1.1444-10.51-3.573-2.334-2.6604-2.5446-6.1178-2.5446-10.708v-15.847h7.9657"/><path d="m570.78 352.98c3.4126 0 5.1714-0.65264 5.1714-3.4903 0-2.832-1.8471-3.4122-5.0882-3.4122h-1.6046v6.9025zm-9.0382 16.141v-29.36h8.9555c3.6946 0 6.6091 0.036 8.9102 1.5206 2.5837 1.6378 4.1041 4.68 4.1041 8.4575 0 3.8886-1.4434 6.8146-4.0655 8.3687-2.013 1.1953-4.27 1.3161-7.0242 1.3161h-3.3633v9.697h-7.5168"/></g><path d="m400.72 317.45h289.39" stroke="#000000" stroke-miterlimit="10" stroke-width="1.9596"/></g></svg>
